<?xml version="1.0" encoding="UTF-8"?><svg id="Layer_1" xmlns="http://www.w3.org/2000/svg" viewBox="0 0 780.43 403.13"><defs><style>.cls-1{fill:none;stroke:#000;stroke-linejoin:round;stroke-width:6px;}</style></defs><path class="cls-1" d="m222.95,207.44c11.67,6.02,158.31-5.46,162.07-8.47s3.58-106.92,1.69-120.85c-7.01-19.86-50.16-73.98-90.07-75.11s-74.16,74.16-79.06,90.35c-3.01,17.69,1.22,110.68,5.36,114.07Z"/><path class="cls-1" d="m212.5,92.8c-7.34-9.41-45.18-39.53-73.98-39.91s-43.29,49.88-46.31,60.8-3.95,98.07,3.95,100.71c7.91,2.64,116.14,1.32,122.54-7.53.19-13.36-2.26-103.15-6.21-114.07Z"/><path class="cls-1" d="m91.37,102.12s-20.33-23.15-36.71-29.93-26.26-12.14-38.4-4.24S2.15,141.08,3.28,164.8s3.67,60.99,23.72,70.02,57.04-11.58,60.99-17.79c3.95-6.21,0-51.22.85-68.73s2.54-46.19,2.54-46.19Z"/><path class="cls-1" d="m557.48,207.44c-11.67,6.02-158.31-5.46-162.07-8.47-3.76-3.01-3.58-106.92-1.69-120.85,7.01-19.86,50.16-73.98,90.07-75.11s74.16,74.16,79.06,90.35c3.01,17.69-1.22,110.68-5.36,114.07Z"/><path class="cls-1" d="m567.93,92.8c7.34-9.41,45.18-39.53,73.98-39.91,28.8-.38,43.29,49.88,46.31,60.8,3.01,10.92,3.95,98.07-3.95,100.71s-116.14,1.32-122.54-7.53c-.19-13.36,2.26-103.15,6.21-114.07Z"/><path class="cls-1" d="m689.06,102.12s20.33-23.15,36.71-29.93c16.38-6.78,26.26-12.14,38.4-4.24,12.14,7.91,14.12,73.13,12.99,96.85s-3.67,60.99-23.72,70.02c-20.05,9.04-57.04-11.58-60.99-17.79-3.95-6.21-.8-49.81-1.65-67.32-.85-17.51-1.74-47.6-1.74-47.6Z"/><path class="cls-1" d="m273.67,227.71c11.29-5.65,98.44-7.17,105.79-1.88,10.16,7.91,9.41,89.98,3.01,114.07-10.92,25.22-43.29,59.86-56.85,60.24s-42.16-28.99-52.71-52.33c-10.92-26.73-9.79-111.81.75-120.09Z"/><path class="cls-1" d="m172.78,231.1c11.29-5.65,86.21-7.91,90.35-3.01s4.14,88.09-2.26,112.19c-13.11,23.63-53.08,54.96-72.66,55.34-9.04-.38-24.49-30.12-31.62-45.55-10.92-26.73,5.65-110.68,16.19-118.96Z"/><path class="cls-1" d="m83.93,239c11.29-5.65,74.92-5.27,79.06-.38-4.52,16.19-15.81,70.78-12.8,100.52-16.94,25.6-30.49,47.81-47.92,52.73-9.04-.38-24.49-30.12-31.62-45.55-10.92-26.73,2.75-99.04,13.29-107.32Z"/><path class="cls-1" d="m503.41,227.71c-11.29-5.65-98.44-7.17-105.79-1.88-10.16,7.91-9.41,89.98-3.01,114.07,10.92,25.22,43.29,59.86,56.85,60.24,13.55.38,42.16-28.99,52.71-52.33,10.92-26.73,9.79-111.81-.75-120.09Z"/><path class="cls-1" d="m604.3,231.1c-11.29-5.65-86.21-7.91-90.35-3.01-4.14,4.89-4.14,88.09,2.26,112.19,13.11,23.63,53.08,54.96,72.66,55.34,9.04-.38,24.49-30.12,31.62-45.55,10.92-26.73-5.65-110.68-16.19-118.96Z"/><path class="cls-1" d="m693.15,239c-11.29-5.65-74.92-5.27-79.06-.38,4.52,16.19,15.81,70.78,12.8,100.52,16.94,25.6,30.49,47.81,47.92,52.73,9.04-.38,24.49-30.12,31.62-45.55,10.92-26.73-2.75-99.04-13.29-107.32Z"/></svg>